 <!DOCTYPE svg PUBLIC "-//W3C//DTD SVG 1.1//EN" "http://www.w3.org/Graphics/SVG/1.1/DTD/svg11.dtd">
<svg id="e4c533bf-7d8d-4776-a8e7-d6043ae715cd" data-name="Layer 1" xmlns="http://www.w3.org/2000/svg" width="865.76" height="682.89" viewBox="0 0 865.76 682.89">
<defs>
<style xmlns="http://www.w3.org/1999/xhtml">*, ::after, ::before { box-sizing: border-box; }
img, svg { vertical-align: middle; }
</style>
<style xmlns="http://www.w3.org/1999/xhtml">*, body, html { -webkit-font-smoothing: antialiased; }
img, svg { max-width: 100%; }
</style>
</defs>
<ellipse cx="723.86" cy="509.52" rx="73.89" ry="21.53" fill="#0071f2" data-primary="true"/>
<path d="M723.86,534.8c-22.93,0-44.49-2.6-60.71-7.32s-25.33-11.14-25.33-18,9-13.19,25.33-17.95,37.78-7.32,60.71-7.32,44.49,2.6,60.71,7.32,25.33,11.14,25.33,17.95-9,13.2-25.33,18S746.79,534.8,723.86,534.8Zm0-49.94c-47.1,0-85.43,11.06-85.43,24.66s38.33,24.67,85.43,24.67,85.43-11.06,85.43-24.67S771,484.86,723.86,484.86Z" fill="#0071f2" data-primary="true"/>
<path d="M723.86,539.6c-27.32,0-53-3.1-72.34-8.73s-30.15-13.25-30.15-21.35,10.71-15.67,30.15-21.34,45-8.73,72.34-8.73,53,3.1,72.34,8.73,30.15,13.25,30.15,21.34-10.71,15.68-30.15,21.35S751.18,539.6,723.86,539.6Zm0-59.54c-56.18,0-101.88,13.22-101.88,29.46S667.68,539,723.86,539s101.88-13.22,101.88-29.47S780,480.06,723.86,480.06Z" fill="#0071f2" data-primary="true"/>
<ellipse cx="74.34" cy="312.97" rx="23.62" ry="77.82" fill="#0071f2" data-primary="true"/>
<path d="M72,400.91c-7.25,0-14-9.2-19.1-25.89s-7.81-38.62-7.81-62,2.77-45.48,7.81-62.06S64.72,225,72,225s14,9.19,19.1,25.88,7.81,38.62,7.81,62.06-2.78,45.47-7.81,62S79.22,400.91,72,400.91Zm0-175.27c-14.5,0-26.3,39.17-26.3,87.33S57.47,400.3,72,400.3s26.3-39.18,26.3-87.33S86.47,225.64,72,225.64Z" fill="#0071f2" data-primary="true"/>
<path d="M72,422.93c-8.76,0-17-11.13-23.1-31.33s-9.45-46.8-9.45-75.2,3.36-55.12,9.45-75.21S63.21,209.86,72,209.86s17,11.13,23.09,31.33,9.46,46.8,9.46,75.21-3.36,55.11-9.46,75.2S80.73,422.93,72,422.93Zm0-212.46C54.36,210.47,40,258,40,316.4S54.36,422.32,72,422.32s31.94-47.52,31.94-105.92S89.58,210.47,72,210.47Z" fill="#0071f2" data-primary="true"/>
<path d="M58.35,255.71l223.72-30.17s96.87-18.14,182.16-15c0,0,107.31,6.49,130.15,14.24a7.14,7.14,0,0,1,4.91,6.18,5.49,5.49,0,0,1-2.55,5.14A7.39,7.39,0,0,1,595,237c-4.41,1.65-26.94,9.2-78.55,12.91,0,0,5.22,2.79,3.13,10.1,0,0-24.37,54.66-52.22,45.6,0,0,30.63,13.23,29.94,22.28,0,0,5.22,17.06-23.33,12.19,0,0-74.27-5.62-129.16-31.63a77.19,77.19,0,0,0-34.91-7.65,55.74,55.74,0,0,0-15,2.27c-2.35.74-4.74,1.33-7.14,1.88-11.56,2.63-41.25,9.81-60.26,18.07,0,0-101.18,36.78-168.06,50.36C59.44,373.34,39.72,318.65,58.35,255.71Z" fill="#f9b499"/>
<path d="M467.2,305.83l-26.58-17.46c-19.38-8.72-22.28-28.6-22.31-28.8l.6-.08c0,.2,2.9,19.75,22,28.35l26.62,17.48Z" fill="#f4a48e"/>
<path d="M432.93,283.73c-1.55-3.42-.76-7.11,2.3-10.68a19.43,19.43,0,0,1,6.83-5.05c11.41-5.21,9.81-20.62,9.79-20.78l.61-.07c0,.16,1.67,16-10.15,21.4a18.93,18.93,0,0,0-6.62,4.9c-2.93,3.42-3.67,6.8-2.2,10Z" fill="#f4a48e"/>
<path d="M450.09,294.58c-.42-.17-10.17-4.32-12-24l.61-.05C440.49,289.8,450.22,294,450.31,294Z" fill="#f4a48e"/>
<path d="M476.26,279.83c-.12-.19-12.46-19.19-29.72-14.14l-.17-.58c17.7-5.19,30.28,14.2,30.4,14.4Z" fill="#f4a48e"/>
<path d="M447.33,264.82l-.06-.6c22.87-2.2,30.89-10.66,31-10.74l.11-.12.16,0a97.92,97.92,0,0,0,37.86-3.8l.18.58a98.93,98.93,0,0,1-38,3.84C477.52,255,469,262.74,447.33,264.82Z" fill="#f4a48e"/>
<path d="M471.28,270.94q-1.87,0-3.93-.12l0-.61c21.16,1.3,27.68-8.4,27.75-8.49l.51.33C495.4,262.43,489.67,270.94,471.28,270.94Z" fill="#f4a48e"/>
<path d="M479.26,270.31c-8.73-1-7.52-12.2-7.51-12.31l.61.07c-.05.44-1.15,10.68,7,11.64Z" fill="#f4a48e"/>
<rect x="477.19" y="239.62" width="0.61" height="14.13" transform="translate(-29.46 68.21) rotate(-7.93)" fill="#f4a48e"/>
<rect x="521.57" y="235.81" width="0.61" height="14.13" transform="translate(-28.51 74.3) rotate(-7.93)" fill="#f4a48e"/>
<rect x="555.13" y="239.66" width="0.61" height="5.75" transform="translate(-26.32 72.55) rotate(-7.3)" fill="#f4a48e"/>
<path d="M483.65,340.66c-.5,0-1,0-1.5-.08-6.86-.69-12-5.95-11.38-11.73s6.63-9.94,13.48-9.24,12,5.95,11.39,11.73a9.77,9.77,0,0,1-4.41,7.07A13.46,13.46,0,0,1,483.65,340.66Zm-.88-20.52c-5.92,0-10.89,3.72-11.4,8.77-.54,5.45,4.32,10.41,10.84,11.07a13.06,13.06,0,0,0,8.67-2.08,9.1,9.1,0,0,0,4.15-6.62c.55-5.45-4.32-10.41-10.84-11.07A13.63,13.63,0,0,0,482.77,320.14Z" fill="#f4a48e"/>
<path d="M473.5,336.09l-.3-.53c6.09-3.42,5-14.9,5-15l.61-.06C478.82,321,479.94,332.48,473.5,336.09Z" fill="#f4a48e"/>
<path d="M451.79,293.05a4.25,4.25,0,0,1-3.41-1.7l-5.33-7.5a5.08,5.08,0,0,1-.85-4.56h0a3.58,3.58,0,0,1,3.26-2.59,5.41,5.41,0,0,1,5,2.38l4.84,7.31a4.25,4.25,0,0,1-3.48,6.66Zm-9-13.57a4.49,4.49,0,0,0,.76,4l5.33,7.51a3.65,3.65,0,0,0,4.85.88,3.63,3.63,0,0,0,1-5.15l-4.83-7.31a4.82,4.82,0,0,0-4.4-2.11,3,3,0,0,0-2.75,2.17Z" fill="#f4a48e"/>
<path d="M448.93,291.19l-.61,0a5.69,5.69,0,0,1,1.89-3.77,6.09,6.09,0,0,1,4.84-1.13l-.07.6a5.59,5.59,0,0,0-4.38,1A5.21,5.21,0,0,0,448.93,291.19Z" fill="#f4a48e"/>
<path d="M122.18,357.37S74,366.11,67.87,305.47c0,0-2-33,0-51.29l-9.52,1.53s-11.71,35.47-6.4,77c0,0,.72,22,7.49,40.59q14.48-3.07,29.77-6.91Q106.39,362.1,122.18,357.37Z" fill="#f9b499"/>
<path d="M785.86,521.24s-28.14,15-95.56,7.66c0,0-34.11-27.19-51.63-64.53,0,0-35-25.84-18.9-95.44,0,0,5.12-41.16,2.23-73.72a14.52,14.52,0,0,1,.25-4.27,13,13,0,0,1,3.52-6.58,10.12,10.12,0,0,1,8.25-3.12,11.37,11.37,0,0,1,4.84,1.53,12.63,12.63,0,0,1,4.37,4.29c5.27,8.59,17.93,32.28,17.57,61.15,0,0,4.61,39.64,13.37,27.66l33.19-142s24.43,7.73,22.12,38.2l-1.84,20.66,4.15,40.71A157.32,157.32,0,0,1,729,368.93l-6.91,46.12s-2.11,31.34,9.78,40.56Z" fill="#f9b499"/>
<path d="M724.89,339.61l-.5-.36c4.84-6.87,2.07-33.2,2-33.47l.61-.06C727.15,306.81,729.86,332.54,724.89,339.61Z" fill="#f4a48e"/>
<path d="M616,281.2h-1.09c-9-.44-12.86-11.66-6.34-17.91a31.49,31.49,0,0,1,10.15-6.08Z" fill="#f9b499"/>
<path d="M614.09,297.86S593.7,309.71,595.26,321a5.9,5.9,0,0,0,2.62,4.14c2.29,1.47,7,3,13.13-.54Z" fill="#f9b499"/>
<path d="M613.24,338.82s-7.31,7-3.71,12.88a7,7,0,0,0,3,2.65,7.87,7.87,0,0,0,8.74-1.08l.62-8.43Z" fill="#f9b499"/>
<path d="M668.21,376.86a3.25,3.25,0,0,0,.26.2c.88.62,3.79,2.29,5.7-1.19l44.9-191.1s2.44-15.67-13.23-19.5L646,146.47s-10.39-3.17-14.88,6.52a16,16,0,0,0-1.32,4.91L614.63,293.21l-4.38,38a9.94,9.94,0,0,0,.38,4.27,5.5,5.5,0,0,0,2.61,3.38l8.69,6" fill="#2f2e41" data-secondary="true"/>
<path d="M702,173.63,642.83,152s-7.79-4.17-9.64,9.4L612,330.09a34.94,34.94,0,0,0,9.9,11.43l42.81,29s2.51,1.83,3.82-3.39l39.42-183S708.37,173.37,702,173.63Z" fill="#e6e7e8"/>
<path d="M705.62,218.08,705,218l6.68-31.39a21.21,21.21,0,0,0,.47-5.45c-.53-9.58-7.4-12.13-7.47-12.16l-60.83-19.58.19-.58,60.83,19.59c.08,0,7.33,2.7,7.88,12.69a21.09,21.09,0,0,1-.48,5.61Z" fill="#fff"/>
<rect x="655.74" y="272.47" width="75.66" height="0.61" transform="translate(274.36 888.97) rotate(-77.24)" fill="#fff"/>
<path d="M656.12,208.77c-11-.79-20.73,11-21.85,26.46s6.85,28.54,17.8,29.33,20.73-11.05,21.85-26.46S667.07,209.56,656.12,208.77ZM671.79,238c-1,13.75-9.73,24.32-19.5,23.61s-16.89-12.43-15.89-26.18,9.73-24.32,19.5-23.61S672.79,224.2,671.79,238Z" fill="#0071f2" data-primary="true"/>
<polygon points="647.88 222.72 645.53 246.69 664.69 242.54 647.88 222.72" fill="#0071f2" data-primary="true"/>
<path d="M638.85,464.94s-35-25.83-18.9-95.43c0,0,5.12-41.16,2.23-73.72a14.52,14.52,0,0,1,.25-4.27,13.07,13.07,0,0,1,3.51-6.58,10.11,10.11,0,0,1,8.25-3.12,11.37,11.37,0,0,1,4.85,1.53,12.6,12.6,0,0,1,4.36,4.29c5.27,8.59,17.94,32.28,17.58,61.15,0,0,4.61,39.64,13.36,27.66" fill="#f9b499"/>
<path d="M677.91,383.37a10.2,10.2,0,0,1-4-.83c-3.41-1.47-6.1-4.78-8-9.84l.57-.22c1.82,4.9,4.39,8.1,7.64,9.5a9.79,9.79,0,0,0,7.08.21l.24.56A9.59,9.59,0,0,1,677.91,383.37Z" fill="#f4a48e"/>
<path d="M632.15,324.78l-.4-.46c.09-.08,8.86-7.65,18.58-4.24l-.2.58C640.75,317.36,632.24,324.7,632.15,324.78Z" fill="#f4a48e"/>
<path d="M631.56,299.35a9.87,9.87,0,0,1-9.61-7.74v-.13a13.32,13.32,0,0,1,3.6-6.73,10.4,10.4,0,0,1,8.49-3.21,11.79,11.79,0,0,1,5,1.58l.08.07a9.84,9.84,0,0,1-7.53,16.16Zm-9-7.8a9.22,9.22,0,1,0,16.1-7.93,11,11,0,0,0-4.67-1.47,9.82,9.82,0,0,0-8,3A12.76,12.76,0,0,0,622.56,291.55Z" fill="#f4a48e"/>
<path d="M626.35,297.53l-.47-.38c.06-.08,6.31-7.67,14.51-4l-.25.56C632.37,290.23,626.41,297.46,626.35,297.53Z" fill="#f4a48e"/>
</svg>